<svg height="480pt" viewBox="0 0 480 480" width="480pt" xmlns="http://www.w3.org/2000/svg"><path d="m8 8h464v64h-464zm0 0" fill="#78b9eb"/><g fill="#1a6fb0"><path d="m472 0h-464c-4.417969 0-8 3.582031-8 8v464c0 4.417969 3.582031 8 8 8h464c4.417969 0 8-3.582031 8-8v-464c0-4.417969-3.582031-8-8-8zm-8 464h-448v-384h448zm0-400h-448v-48h448zm0 0"/><path d="m32 24h16c4.417969 0 8 3.582031 8 8v16c0 4.417969-3.582031 8-8 8h-16c-4.417969 0-8-3.582031-8-8v-16c0-4.417969 3.582031-8 8-8zm0 0"/><path d="m72 24h16c4.417969 0 8 3.582031 8 8v16c0 4.417969-3.582031 8-8 8h-16c-4.417969 0-8-3.582031-8-8v-16c0-4.417969 3.582031-8 8-8zm0 0"/><path d="m112 24h16c4.417969 0 8 3.582031 8 8v16c0 4.417969-3.582031 8-8 8h-16c-4.417969 0-8-3.582031-8-8v-16c0-4.417969 3.582031-8 8-8zm0 0"/><path d="m424 32h32v16h-32zm0 0"/><path d="m400 32h16v16h-16zm0 0"/><path d="m32 248h96v56h16v-56h24v-16h-24v-64c0-2.976562-1.652344-5.703125-4.289062-7.082031-2.632813-1.382813-5.816407-1.1875-8.261719.507812l-104 72c-2.875 1.992188-4.125 5.621094-3.082031 8.960938 1.042968 3.335937 4.132812 5.613281 7.632812 5.613281zm96-64.726562v48.726562h-70.398438zm0 0"/><path d="m184 304h112c4.417969 0 8-3.582031 8-8v-128c0-4.417969-3.582031-8-8-8h-112c-4.417969 0-8 3.582031-8 8v128c0 4.417969 3.582031 8 8 8zm8-128h96v112h-96zm0 0"/><path d="m320 248h96v56h16v-56h24v-16h-24v-64c0-2.976562-1.652344-5.703125-4.289062-7.082031-2.632813-1.382813-5.816407-1.1875-8.261719.507812l-104 72c-2.875 1.992188-4.125 5.621094-3.082031 8.960938 1.042968 3.335937 4.132812 5.613281 7.632812 5.613281zm96-64.726562v48.726562h-70.398438zm0 0"/><path d="m56 336h112v16h-112zm0 0"/><path d="m184 336h48v16h-48zm0 0"/><path d="m248 336h80v16h-80zm0 0"/><path d="m344 336h96v16h-96zm0 0"/></g></svg>
