<svg id="Capa_1" enable-background="new 0 0 512 512" height="512" viewBox="0 0 512 512" width="512" xmlns="http://www.w3.org/2000/svg" xmlns:xlink="http://www.w3.org/1999/xlink"><linearGradient id="SVGID_1_" gradientUnits="userSpaceOnUse" x1="83.376" x2="415.486" y1="414.059" y2="18.266"><stop offset="0" stop-color="#ffd9d9" stop-opacity="0"/><stop offset=".9981" stop-color="#ffb3b3"/></linearGradient><linearGradient id="SVGID_2_" gradientUnits="userSpaceOnUse" x1="250.253" x2="250.253" y1="449.428" y2="38.092"><stop offset="0" stop-color="#ff4d4d" stop-opacity=".4"/><stop offset=".1463" stop-color="#ff4d4d" stop-opacity=".342"/><stop offset="1" stop-color="#ff4d4d" stop-opacity="0"/></linearGradient><g><g><g><path d="m420.68 66.912c-177.885 27.736-180.07-59.656-308.409-38.058-144.463 24.312-134.635 260.595-54.219 357.769 140.965 170.34 427.892 124.487 392.85-148.607-4.695-36.591 21.924-56.298 47.037-78.131 31.541-27.422 11.786-106.857-77.259-92.973z" fill="url(#SVGID_1_)"/></g><g><g><g><path d="m451.28 210.02v99.96c0 2.76-2.23 5-5 5h-151.31c-2.76 0-5-2.24-5-5v-99.96c0-2.76 2.24-5 5-5h151.31c2.77 0 5 2.24 5 5z" fill="#ffab66"/><path d="m358.86 205.02-68.89 68.89v-63.89c0-2.76 2.24-5 5-5z" fill="#ff9d33"/><path d="m415.529 249.942h-10.025v-10.025c0-2.761-2.239-5-5-5h-10.115c-2.761 0-5 2.239-5 5v10.025h-10.025c-2.761 0-5 2.239-5 5v10.115c0 2.761 2.239 5 5 5h10.025v10.025c0 2.761 2.239 5 5 5h10.115c2.761 0 5-2.239 5-5v-10.025h10.025c2.761 0 5-2.239 5-5v-10.115c0-2.761-2.239-5-5-5z" fill="#fff"/></g><g><g><path d="m355.4 260.04v153.48c0 5.53-4.48 10-10 10h-109.53c-5.52 0-10-4.47-10-10v-153.48c0-5.53 4.48-10 10-10h109.53c5.52 0 10 4.47 10 10z" fill="#fff"/><path d="m313.84 250.04-87.97 87.97v-77.97c0-5.53 4.48-10 10-10z" fill="#d9d9ff"/></g><g><g><path d="m279.926 290.531h-18.583c-2.761 0-5-2.239-5-5s2.239-5 5-5h18.583c2.761 0 5 2.239 5 5s-2.239 5-5 5z" fill="#ff6c6c"/></g><path d="m282.58 281.3-9.23 9.23h-12.01c-2.76 0-5-2.24-5-5s2.24-5 5-5h18.59c.97 0 1.88.28 2.65.77z" fill="#ff4d4d"/><g><path d="m319.926 310.913h-58.583c-2.761 0-5-2.239-5-5s2.239-5 5-5h58.583c2.761 0 5 2.239 5 5s-2.239 5-5 5z" fill="#ffab66"/></g><g><path d="m319.926 331.294h-58.583c-2.761 0-5-2.239-5-5s2.239-5 5-5h58.583c2.761 0 5 2.239 5 5s-2.239 5-5 5z" fill="#ffab66"/></g><g><path d="m319.926 372.464h-40.583c-2.761 0-5-2.239-5-5s2.239-5 5-5h40.583c2.761 0 5 2.239 5 5s-2.239 5-5 5z" fill="#ffab66"/><g fill="#ff6c6c"><circle cx="261.343" cy="367.464" r="5"/><circle cx="261.343" cy="387.846" r="5"/></g></g><g><path d="m319.926 392.846h-40.583c-2.761 0-5-2.239-5-5s2.239-5 5-5h40.583c2.761 0 5 2.239 5 5s-2.239 5-5 5z" fill="#ffab66"/></g></g></g><g><g><path d="m217.82 116.979h64.865v253.562h-64.865z" fill="#8383ff" transform="matrix(.707 .707 -.707 .707 245.662 -105.56)"/><path d="m229.87 218.28v62.84c0 5.53-4.47 10-10 10h-62.85z" fill="#6c6cff"/><path d="m185.034 308.978c-4.896-4.896-4.896-12.835 0-17.731l118.362-118.362c4.896-4.896 12.835-4.896 17.731 0 4.896 4.896 4.896 12.835 0 17.731l-118.361 118.362c-4.897 4.897-12.835 4.897-17.732 0z" fill="#b3b3ff"/><path d="m229.87 246.41v34.71c0 .27-.01.53-.03.79l-9.18 9.18c-.26.02-.53.03-.79.03h-34.71z" fill="#9494ff"/></g><g fill="#b3b3ff"><path d="m433.925 165.899-60.521 18.423c-2.857.87-5.961.094-8.073-2.018l-53.622-53.622c-2.112-2.112-2.888-5.216-2.018-8.073l18.424-60.521c.392-1.289 1.401-2.298 2.69-2.69l62.842-19.13c1.429-.435 2.981-.047 4.036 1.009l6.787 6.787c1.579 1.579 1.579 4.139 0 5.718l-36.434 36.434c-1.148 1.148-1.498 2.87-.889 4.375l9.229 22.814c.411 1.016 1.217 1.821 2.232 2.232l22.809 9.223c1.505.608 3.227.258 4.375-.889l36.434-36.434c1.579-1.579 4.139-1.579 5.718 0l6.793 6.793c1.056 1.056 1.444 2.608 1.009 4.036l-19.13 62.842c-.393 1.289-1.402 2.298-2.691 2.691z"/><path d="m66.581 321.621 60.521-18.423c2.857-.87 5.961-.094 8.073 2.018l53.622 53.622c2.112 2.112 2.888 5.216 2.018 8.073l-18.424 60.521c-.392 1.289-1.401 2.298-2.69 2.69l-62.842 19.13c-1.429.435-2.981.047-4.036-1.009l-6.787-6.787c-1.579-1.579-1.579-4.139 0-5.718l36.434-36.434c1.148-1.148 1.498-2.87.889-4.375l-9.229-22.814c-.411-1.016-1.217-1.821-2.232-2.232l-22.809-9.223c-1.505-.608-3.227-.258-4.375.889l-36.434 36.434c-1.579 1.579-4.139 1.579-5.718 0l-6.793-6.793c-1.056-1.056-1.444-2.608-1.009-4.036l19.13-62.842c.393-1.29 1.401-2.298 2.691-2.691z"/></g></g><g><g><g><path d="m219.872 267.125h-154.153c-5.523 0-10-4.477-10-10v-154.154c0-5.523 4.477-10 10-10h154.153c5.523 0 10 4.477 10 10v154.153c0 5.523-4.477 10.001-10 10.001z" fill="#fff"/><path d="m229.872 127.937v-24.966c0-5.523-4.477-10-10-10h-154.153c-5.523 0-10 4.477-10 10v24.966z" fill="#ff6c6c"/></g><g><path d="m76.066 146.716v99.624h112.967c1.249 0 1.832-1.546.895-2.371l-111.612-98.269c-.875-.77-2.25-.149-2.25 1.016z" fill="#d9d9ff"/></g><g><g><path d="m153.322 155.359h33.203c2.761 0 5-2.239 5-5s-2.239-5-5-5h-33.203c-2.761 0-5 2.239-5 5s2.239 5 5 5z" fill="#8383ff"/><circle cx="204.525" cy="150.359" fill="#ff6c6c" r="5"/></g></g></g><path d="m209.524 244.994v-12.889c0-.358-.142-.701-.395-.955l-30.14-30.14c-.527-.527-1.382-.527-1.909 0l-7.265 7.265-24.755-24.765c-.527-.527-1.382-.527-1.909 0l-26.175 26.175-40.91-40.9.002 77.554 132.108.004c.744.001 1.348-.603 1.348-1.349z" fill="#ff6c6c"/><path d="m209.524 241.341h-128.458v-19.184h3.356c2.761 0 5-2.239 5-5s-2.239-5-5-5h-3.356v-13.375h3.356c2.761 0 5-2.239 5-5s-2.239-5-5-5h-3.356v-13.375h3.356c2.761 0 5-2.239 5-5s-2.239-5-5-5h-3.356v-21.688c0-2.761-2.238-5-5-5s-5 2.239-5 5v102.622c0 2.761 2.238 5 5 5h133.458c2.762 0 5-2.239 5-5s-2.238-5-5-5z" fill="#8383ff"/></g><g><g><path d="m409.82 361.073h-18.583c-2.762 0-5-2.239-5-5s2.238-5 5-5h18.583c2.762 0 5 2.239 5 5s-2.238 5-5 5z" fill="#ffab66"/></g><g><path d="m449.82 381.455h-58.583c-2.762 0-5-2.239-5-5s2.238-5 5-5h58.583c2.762 0 5 2.239 5 5s-2.238 5-5 5z" fill="#ffab66"/></g><g><path d="m449.82 401.836h-58.583c-2.762 0-5-2.239-5-5s2.238-5 5-5h58.583c2.762 0 5 2.239 5 5s-2.238 5-5 5z" fill="#ffab66"/></g></g></g><g><path d="m391.237 462.402c-2.762 0-5-2.239-5-5 0-3.492-2.842-6.333-6.334-6.333-2.762 0-5-2.239-5-5s2.238-5 5-5c3.492 0 6.334-2.841 6.334-6.333 0-2.761 2.238-5 5-5s5 2.239 5 5c0 3.492 2.841 6.333 6.333 6.333 2.762 0 5 2.239 5 5s-2.238 5-5 5c-3.492 0-6.333 2.841-6.333 6.333 0 2.761-2.238 5-5 5z" fill="#ffab66"/></g><g><path d="m266.343 69.433c-2.762 0-5-2.239-5-5 0-3.492-2.841-6.333-6.333-6.333-2.762 0-5-2.239-5-5s2.238-5 5-5c3.492 0 6.333-2.841 6.333-6.333 0-2.761 2.238-5 5-5s5 2.239 5 5c0 3.492 2.841 6.333 6.333 6.333 2.762 0 5 2.239 5 5s-2.238 5-5 5c-3.492 0-6.333 2.841-6.333 6.333 0 2.761-2.239 5-5 5z" fill="#ff6c6c"/></g><g><path d="m29.217 319.18c-2.762 0-5-2.239-5-5 0-3.492-2.841-6.333-6.333-6.333-2.762 0-5-2.239-5-5s2.238-5 5-5c3.492 0 6.333-2.841 6.333-6.333 0-2.761 2.238-5 5-5s5 2.239 5 5c0 3.492 2.841 6.333 6.333 6.333 2.762 0 5 2.239 5 5s-2.238 5-5 5c-3.492 0-6.333 2.841-6.333 6.333 0 2.761-2.238 5-5 5z" fill="#ffab66"/></g><g><path d="m216.515 466.902c-1.279 0-2.56-.488-3.535-1.464l-5.465-5.464-5.465 5.464c-1.951 1.952-5.119 1.952-7.07 0-1.953-1.953-1.953-5.119 0-7.071l9-9c1.951-1.952 5.119-1.952 7.07 0l9 9c1.953 1.953 1.953 5.119 0 7.071-.976.976-2.256 1.464-3.535 1.464z" fill="#8383ff"/></g><g><path d="m218.524 67.1c-1.279 0-2.56-.488-3.535-1.464l-5.465-5.464-5.465 5.464c-1.951 1.952-5.119 1.952-7.07 0-1.953-1.953-1.953-5.119 0-7.071l9-9c1.951-1.952 5.119-1.952 7.07 0l9 9c1.953 1.953 1.953 5.119 0 7.071-.975.975-2.255 1.464-3.535 1.464z" fill="#8383ff"/></g></g></g><path d="m365.331 182.304c2.112 2.112 5.216 2.888 8.073 2.018l60.521-18.423c1.289-.392 2.298-1.401 2.69-2.69l19.13-62.842c.435-1.429.047-2.98-1.009-4.036l-6.793-6.793c-1.579-1.579-4.139-1.579-5.718 0l-36.434 36.434c-1.148 1.148-2.87 1.498-4.375.889l-22.809-9.223c-1.016-.411-1.822-1.216-2.232-2.232l-9.229-22.814c-.609-1.505-.259-3.227.889-4.375l36.434-36.434c1.579-1.579 1.579-4.139 0-5.718l-6.787-6.787c-1.056-1.056-2.608-1.444-4.037-1.009l-62.842 19.13c-1.289.392-2.298 1.401-2.691 2.69l-18.423 60.521c-.87 2.857-.094 5.961 2.018 8.073l3.878 3.878-85.714 85.714v-115.304c0-5.523-4.477-10-10-10h-154.152c-5.523 0-10 4.477-10 10v154.153c0 5.523 4.477 10 10 10h115.303l-41.969 41.969-3.878-3.878c-2.112-2.112-5.216-2.888-8.073-2.018l-60.521 18.423c-1.289.392-2.298 1.401-2.69 2.69l-19.13 62.842c-.435 1.429-.047 2.981 1.009 4.036l6.793 6.793c1.579 1.579 4.139 1.579 5.718 0l36.434-36.434c1.148-1.148 2.87-1.498 4.375-.889l22.809 9.223c1.016.411 1.821 1.216 2.232 2.232l9.229 22.814c.609 1.505.259 3.227-.889 4.375l-36.434 36.434c-1.579 1.579-1.579 4.139 0 5.718l6.787 6.787c1.056 1.056 2.608 1.444 4.036 1.009l62.842-19.13c1.289-.392 2.298-1.401 2.691-2.69l18.424-60.521c.87-2.857.094-5.961-2.018-8.073l-3.878-3.878 40.951-40.951v99.511c0 5.53 4.48 10 10 10h109.528c5.52 0 10-4.47 10-10v-98.54h90.88c2.77 0 5-2.24 5-5v-99.96c0-2.76-2.23-5-5-5h-111.421l26.594-26.594zm-75.361 67.736h-.131l.131-.131z" fill="url(#SVGID_2_)"/></g></svg>